<svg xmlns="http://www.w3.org/2000/svg" viewBox="0 0 1024 1024"><rect width="1024" height="1024" fill="#000000"/><path fill="#F4F1EA" fill-rule="evenodd" d="
M 236 188 H 566
C 646 188 706 216 740 268 C 774 320 774 396 740 448
C 716 484 680 508 636 520 L 812 836 H 650 L 494 540 H 380 V 836 H 236 Z
M 380 316 V 412 H 552 C 588 412 610 392 610 364 C 610 336 588 316 552 316 Z

M 292 300 L 316 206 L 340 290 L 372 196 L 398 286
L 600 420 L 616 452 L 588 486 L 528 470
C 486 452 448 442 412 444
C 366 448 324 476 292 520 Z"/></svg>